<?xml version="1.0" encoding="UTF-8" standalone="no"?>
<!-- Created with Inkscape (http://www.inkscape.org/) -->

<svg
   xmlns:dc="http://purl.org/dc/elements/1.1/"
   xmlns:cc="http://creativecommons.org/ns#"
   xmlns:rdf="http://www.w3.org/1999/02/22-rdf-syntax-ns#"
   xmlns:svg="http://www.w3.org/2000/svg"
   xmlns="http://www.w3.org/2000/svg"
   xmlns:sodipodi="http://sodipodi.sourceforge.net/DTD/sodipodi-0.dtd"
   xmlns:inkscape="http://www.inkscape.org/namespaces/inkscape"
   width="565.33301"
   height="498.78214"
   viewBox="0 0 149.57769 131.96944"
   version="1.1"
   id="svg8"
   inkscape:version="0.92.3 (2405546, 2018-03-11)"
   sodipodi:docname="algorithm.svg">
  <defs
     id="defs2" />
  <sodipodi:namedview
     id="base"
     pagecolor="#ffffff"
     bordercolor="#666666"
     borderopacity="1.0"
     inkscape:pageopacity="0.0"
     inkscape:pageshadow="2"
     inkscape:zoom="0.49497475"
     inkscape:cx="136.78122"
     inkscape:cy="183.01981"
     inkscape:document-units="mm"
     inkscape:current-layer="layer1"
     showgrid="false"
     fit-margin-top="0"
     fit-margin-left="0"
     fit-margin-right="0"
     fit-margin-bottom="0"
     inkscape:window-width="1366"
     inkscape:window-height="743"
     inkscape:window-x="0"
     inkscape:window-y="25"
     inkscape:window-maximized="1"
     units="px" />
  <metadata
     id="metadata5">
    <rdf:RDF>
      <cc:Work
         rdf:about="">
        <dc:format>image/svg+xml</dc:format>
        <dc:type
           rdf:resource="http://purl.org/dc/dcmitype/StillImage" />
        <dc:title></dc:title>
      </cc:Work>
    </rdf:RDF>
  </metadata>
  <g
     inkscape:label="Layer 1"
     inkscape:groupmode="layer"
     id="layer1"
     transform="translate(-25.059853,-62.822537)">
    <path
       style="fill:#000000;stroke-width:0.2577737"
       d="m 109.59865,194.39184 c -2.03354,-0.88203 -2.84318,-2.34108 -2.84318,-5.12368 v -1.94359 l -4.57548,-0.005 c -4.860451,-0.006 -6.005271,-0.24045 -7.078947,-1.44958 -1.13355,-1.27654 -1.234258,-2.05098 -1.234258,-9.49185 v -7.09707 h -5.138692 c -3.004013,0 -5.440141,-0.1139 -5.864347,-0.27417 -1.954842,-0.73859 -3.160247,-2.81602 -3.168851,-5.46129 l -0.0055,-1.73997 H 68.907853 58.126299 l -0.560483,-0.59661 c -0.722476,-0.76905 -0.730924,-2.00468 -0.01807,-2.65006 0.512348,-0.46388 1.140116,-0.49507 11.342037,-0.56362 l 10.799675,-0.0726 0.0019,-1.47408 c 0.0019,-2.10874 0.435027,-3.38906 1.509061,-4.46229 1.269696,-1.26886 2.632017,-1.52282 8.168593,-1.52282 h 4.498345 v -8.2657 c 0,-5.20935 0.09875,-8.45023 0.267078,-8.76474 0.146879,-0.27446 0.639871,-0.66387 1.095534,-0.86535 0.455655,-0.20148 6.338381,-2.85668 13.072721,-5.90043 l 12.24425,-5.53411 0.0683,-7.50338 0.0683,-7.50337 h -5.03876 c -6.26848,0 -7.20758,-0.29422 -8.40069,-2.63191 -0.43515,-0.85261 -0.48813,-1.57105 -0.48813,-6.620898 0,-6.013286 0.0993,-6.641206 1.24084,-7.847719 1.31848,-1.393528 1.65064,-1.459185 7.38179,-1.459185 h 5.29716 V 85.37521 83.184135 H 79.170602 37.665497 l 0.06796,35.894985 c 0.06695,35.36857 0.07554,35.90783 0.583526,36.77026 1.094557,1.85828 1.391841,1.94574 7.100248,2.08913 4.696181,0.11797 5.173582,0.17258 5.633483,0.64444 0.798341,0.8191 0.808973,1.92371 0.02603,2.70662 -0.480232,0.48023 -0.859245,0.51555 -5.532464,0.51555 -4.392422,0 -5.189128,-0.0644 -6.400359,-0.51761 -1.968443,-0.73649 -3.362084,-2.03512 -4.360536,-4.06327 l -0.848596,-1.72374 v -43.18266 c 0,-40.995426 0.02347,-43.23473 0.463034,-44.213604 1.179838,-2.627315 2.999283,-4.278341 5.427125,-4.924779 1.089378,-0.29006 6.904659,-0.354013 32.418913,-0.356521 31.066309,-0.003 31.091969,-0.0026 31.770609,0.531196 0.93929,0.738852 0.93929,2.059242 0,2.798093 -0.67862,0.533802 -0.70571,0.534255 -31.845323,0.534255 -30.493398,0 -31.187597,0.01095 -32.160968,0.507534 -0.547164,0.279146 -1.267531,0.946134 -1.60082,1.482201 -0.570209,0.917157 -0.610954,1.259835 -0.690491,5.807919 l -0.08458,4.833258 h 41.521654 41.521648 v -4.859581 c 0,-4.615214 -0.0291,-4.90243 -0.57999,-5.711761 -1.17024,-1.71944 -1.68603,-1.916203 -5.43145,-2.071976 -1.86852,-0.07771 -3.59218,-0.232008 -3.83038,-0.342885 -0.61017,-0.284011 -0.95389,-1.435938 -0.67464,-2.260928 0.36661,-1.083034 1.32868,-1.314249 5.02653,-1.208032 2.9003,0.08331 3.47015,0.175631 4.71662,0.764157 1.69694,0.801222 3.13018,2.19098 3.92678,3.807677 0.56657,1.149826 0.58816,1.470559 0.71314,10.594462 l 0.12889,9.408739 5.55452,0.128887 c 6.15926,0.14292 6.26392,0.169934 7.63922,1.971643 l 0.72604,0.951158 0.0823,5.691818 c 0.0864,5.97996 -0.0421,7.01297 -1.02854,8.26704 -1.14759,1.45892 -2.12429,1.66614 -7.88247,1.67239 l -5.21992,0.006 v 7.43058 7.43059 l 3.64273,1.6425 c 3.07886,1.38827 3.69211,1.75998 3.96179,2.40138 0.37835,0.8998 0.2571,1.52073 -0.41588,2.12978 -0.79629,0.72063 -1.69881,0.52753 -5.47373,-1.17118 l -3.56945,-1.60625 -11.05099,4.97974 c -6.07805,2.73885 -10.9677,5.05252 -10.86589,5.14148 0.38915,0.34 21.59982,9.77725 21.967,9.77376 0.33293,-0.003 21.77621,-9.57679 22.03902,-9.83961 0.0529,-0.0529 -1.43328,-0.7739 -3.30264,-1.6022 -1.86936,-0.8283 -3.65984,-1.74534 -3.97884,-2.03786 -0.70709,-0.64841 -0.77484,-1.99539 -0.12888,-2.56262 1.03273,-0.90685 1.45001,-0.81406 6.43909,1.43201 7.48426,3.36939 7.25547,3.23946 7.54608,4.28554 0.14076,0.50672 0.25459,4.37921 0.25538,8.68887 l 0.002,7.77475 5.21992,0.0912 c 4.79242,0.0838 5.30785,0.13798 6.29374,0.66151 2.36064,1.25356 2.74274,2.64109 2.61953,9.51218 -0.0981,5.46812 -0.2083,5.98394 -1.54575,7.23271 -1.28919,1.20362 -2.18345,1.36562 -7.53817,1.36562 h -5.02035 l -0.0789,7.4305 -0.079,7.43048 -0.69187,1.04482 c -1.2299,1.85731 -2.21342,2.13836 -7.48294,2.13836 h -4.53211 l -0.0909,2.14583 c -0.11079,2.61534 -0.82091,3.91959 -2.60412,4.78283 -1.1033,0.5341 -1.41294,0.54654 -13.3568,0.53669 -10.30352,-0.008 -12.36805,-0.0712 -13.12185,-0.39809 z m 25.19527,-8.70969 c 0.0487,-3.56044 -0.0199,-5.23072 -0.22489,-5.47769 -0.40422,-0.48706 -23.15229,-0.53132 -23.63762,-0.0459 -0.33596,0.33595 -0.46245,10.27811 -0.13494,10.60563 0.0959,0.0959 5.51883,0.14425 12.05093,0.10741 l 11.87652,-0.067 z m -20.00252,1.04583 c -0.7435,-0.79141 -0.71449,-1.85057 0.0722,-2.63729 0.78668,-0.78668 1.46973,-0.80231 2.30407,-0.0527 0.93238,0.83769 0.99426,1.9333 0.1565,2.77107 -0.69539,0.69538 -1.83772,0.65883 -2.5328,-0.081 z m 6.385,0.12122 c -0.77517,-0.62769 -0.78553,-1.93255 -0.0214,-2.69667 0.53683,-0.53683 0.78329,-0.56567 4.83456,-0.56567 4.17533,0 4.27967,0.0133 4.76165,0.60855 0.63838,0.78837 0.62458,1.6032 -0.0415,2.44997 l -0.53426,0.67919 h -4.206 c -3.70345,0 -4.27614,-0.0568 -4.79306,-0.47537 z m -14.38294,-5.5371 c 0.10616,-2.506 0.68932,-3.62243 2.40644,-4.60695 l 1.03552,-0.59373 h 12.24425 c 6.73434,0 12.56113,0.0887 12.9484,0.19705 0.97508,0.27288 2.52489,1.68974 2.94308,2.6906 0.19155,0.45843 0.34827,1.64923 0.34827,2.6462 v 1.8127 h 4.20171 c 2.92429,0 4.29576,-0.094 4.51104,-0.30932 0.22491,-0.22491 0.30933,-2.15958 0.30933,-7.08879 v -6.77944 l -4.96215,-0.002 c -2.72918,-7.6e-4 -5.37328,-0.11565 -5.87579,-0.25525 -0.5025,-0.13961 -1.2796,-0.63195 -1.7269,-1.0941 -1.47035,-1.51919 -1.61287,-2.21415 -1.61128,-7.85634 7.9e-4,-2.92477 0.12282,-5.53653 0.28608,-6.1246 0.15655,-0.5639 0.70689,-1.44722 1.22299,-1.96292 1.2698,-1.26876 2.63212,-1.52272 8.1687,-1.52272 h 4.49835 v -6.44435 c 0,-3.54438 -0.0997,-6.44434 -0.22161,-6.44434 -0.12189,0 -5.31281,2.29646 -11.53538,5.10324 l -11.31376,5.10322 -0.13569,4.24107 c -0.16105,5.03426 -0.4129,5.82163 -2.4607,7.69321 -1.89722,1.73395 -3.08125,2.08999 -6.95032,2.08999 h -3.13941 l -0.13865,2.02261 c -0.14631,2.13469 -0.5272,3.15544 -1.52514,4.08721 -1.28976,1.20424 -2.18226,1.36562 -7.55258,1.36562 h -5.034865 v 6.91692 c 0,3.80431 0.07737,6.99426 0.171853,7.08878 0.09451,0.0945 2.112582,0.17185 4.484582,0.17185 h 4.31274 z m 0.94155,-16.20762 c 0.21857,-0.21857 0.30934,-1.72585 0.30934,-5.13705 0,-4.04516 -0.0657,-4.8934 -0.40508,-5.23282 -0.35597,-0.35596 -1.77974,-0.40507 -11.74565,-0.40507 -7.324399,0 -11.517156,0.0945 -11.839175,0.26684 -0.466468,0.24965 -0.498602,0.58694 -0.498602,5.23281 0,3.51873 0.09015,5.05611 0.309324,5.27529 0.445204,0.44521 23.424643,0.44521 23.869843,0 z m -19.617981,-3.58592 c -1.224155,-0.71215 -1.032137,-2.75549 0.311222,-3.31194 1.909368,-0.79088 3.507036,1.62812 2.006423,3.03788 -0.640321,0.60155 -1.566453,0.71106 -2.317645,0.27406 z m 6.052466,-0.31018 c -0.691769,-0.73636 -0.718312,-1.7291 -0.06768,-2.53257 0.4818,-0.59501 0.587324,-0.60855 4.741748,-0.60855 3.816597,0 4.304197,0.05 4.791587,0.49105 0.70805,0.64078 0.72188,2.03631 0.027,2.73112 -0.47344,0.47345 -0.85924,0.51556 -4.72388,0.51556 -4.065627,0 -4.227341,-0.0203 -4.768813,-0.59661 z m 67.440225,3.8961 c 0.21857,-0.21857 0.30933,-1.72585 0.30933,-5.13705 0,-4.04516 -0.0657,-4.8934 -0.40508,-5.23282 -0.35597,-0.35596 -1.77973,-0.40507 -11.74564,-0.40507 -7.3244,0 -11.51716,0.0945 -11.83918,0.26684 -0.46647,0.24965 -0.4986,0.58694 -0.4986,5.23281 0,3.51873 0.0901,5.05611 0.30932,5.27529 0.44521,0.44521 23.42465,0.44521 23.86985,0 z m -19.61798,-3.58592 c -1.22669,-0.71362 -1.02082,-2.90533 0.3047,-3.24395 1.0671,-0.27258 1.672,-0.14537 2.15844,0.45396 1.32293,1.62995 -0.63839,3.85154 -2.46314,2.78999 z m 6.05246,-0.31018 c -0.69177,-0.73636 -0.71831,-1.7291 -0.0677,-2.53257 0.4818,-0.59501 0.58733,-0.60855 4.74175,-0.60855 3.8166,0 4.3042,0.05 4.79159,0.49105 0.70805,0.64078 0.72187,2.03631 0.027,2.73112 -0.47345,0.47345 -0.85925,0.51556 -4.72389,0.51556 -4.06562,0 -4.22733,-0.0203 -4.76881,-0.59661 z m -29.48277,-3.63218 c 0.38284,-0.19918 0.98607,-0.67218 1.34051,-1.0511 0.62226,-0.66524 0.64718,-0.82791 0.72436,-4.72887 l 0.0799,-4.03991 -11.29308,-5.0923 c -6.2112,-2.80076 -11.380085,-5.09173 -11.486419,-5.09103 -0.106325,7.1e-4 -0.193326,2.90122 -0.193326,6.4456 v 6.44435 h 4.498345 c 2.4741,0 5.09629,0.12824 5.82711,0.28496 2.4905,0.53412 3.8521,2.61495 3.8521,5.88686 v 1.30361 h 2.9772 c 2.05477,0 3.19286,-0.1122 3.67328,-0.36217 z m 16.2326,-60.600627 c 0.0628,-4.619207 0.0242,-5.188342 -0.37149,-5.47769 -0.57207,-0.418309 -22.52629,-0.471123 -23.30185,-0.05605 -0.46719,0.250029 -0.49861,0.588481 -0.49861,5.370288 0,2.806893 0.0785,5.181919 0.17439,5.277839 0.0959,0.0959 5.51883,0.14425 12.05093,0.10741 l 11.87652,-0.067 z m -20.03752,1.110694 c -0.62658,-0.672542 -0.67735,-1.682207 -0.12432,-2.471774 0.2946,-0.420587 0.6609,-0.572905 1.37781,-0.572905 1.19242,0 1.91567,0.697664 1.91567,1.847913 0,1.574096 -2.08434,2.361197 -3.16916,1.196766 z m 6.41989,0.08877 c -0.77476,-0.627362 -0.78547,-1.93234 -0.0221,-2.696671 0.51389,-0.514551 0.87077,-0.573415 3.94911,-0.651386 1.86129,-0.04714 3.77884,-0.01167 4.26122,0.07883 1.78647,0.335145 2.48081,2.058638 1.28278,3.184131 -0.56147,0.527471 -0.84064,0.56048 -4.74026,0.56048 -3.64286,0 -4.2146,-0.05745 -4.73071,-0.475377 z M 45.686497,143.47983 c -1.369893,-0.54773 -1.730437,-2.07179 -0.715654,-3.02513 0.527134,-0.49522 0.885157,-0.56048 3.074572,-0.56048 2.369971,0 2.501259,0.0296 3.012226,0.67919 0.293841,0.37356 0.534259,0.8321 0.534259,1.01898 0,0.76232 -0.63261,1.64326 -1.36286,1.89783 -0.954683,0.3328 -3.699912,0.32652 -4.542543,-0.0104 z m 11.482302,-0.25327 c -0.820272,-0.64522 -0.897277,-1.71704 -0.186428,-2.59491 0.462195,-0.57078 0.663582,-0.60855 3.244953,-0.60855 2.581362,0 2.78275,0.0377 3.244945,0.60855 0.670039,0.82747 0.619027,1.73749 -0.139949,2.49645 -0.582128,0.58213 -0.826672,0.63272 -3.058525,0.63272 -2.063797,0 -2.527152,-0.0797 -3.104996,-0.53426 z m 9.748925,-0.0985 c -0.758974,-0.75896 -0.809996,-1.66898 -0.139947,-2.49645 0.49166,-0.60717 0.506,-0.60855 6.338232,-0.60855 5.832224,0 5.846572,9.3e-4 6.338223,0.60855 0.710859,0.87787 0.633852,1.94969 -0.18642,2.59491 -0.639096,0.50271 -1.005091,0.53426 -6.198285,0.53426 -5.516079,0 -5.519439,-2.5e-4 -6.151803,-0.63272 z m 17.460044,0.10713 c -0.830992,-0.77418 -0.762391,-2.1163 0.144725,-2.83108 0.61342,-0.48335 0.9643,-0.54575 2.605712,-0.46339 1.612328,0.0809 1.969968,0.1855 2.384409,0.69732 0.665099,0.82136 0.611968,1.73291 -0.145153,2.49002 -0.557102,0.5571 -0.859354,0.63272 -2.529123,0.63272 -1.552184,0 -1.998824,-0.0954 -2.46057,-0.52559 z m -38.691271,-9.03525 c -1.339094,-0.53541 -1.670164,-1.77222 -0.778001,-2.90641 0.512593,-0.65168 0.63725,-0.67921 3.074573,-0.67921 2.437322,0 2.561979,0.0275 3.074572,0.67921 0.293841,0.37355 0.534259,0.83209 0.534259,1.01896 0,0.76233 -0.63261,1.64327 -1.36286,1.89783 -0.954683,0.33281 -3.699912,0.32653 -4.542543,-0.0104 z m 11.482302,-0.25327 c -0.887871,-0.6984 -0.907508,-1.8386 -0.04649,-2.69963 0.70368,-0.70368 1.103042,-0.7704 2.044353,-0.34151 0.852853,0.38859 1.291699,1.46872 0.955744,2.35235 -0.479859,1.26211 -1.825739,1.57598 -2.953615,0.68879 z m 7.098942,-0.0624 c -0.691713,-0.7363 -0.718312,-1.72903 -0.06786,-2.53256 l 0.492609,-0.60857 11.679526,-0.0722 c 12.459912,-0.077 12.937368,-0.0356 13.392078,1.16034 0.363268,0.95546 0.289468,1.33077 -0.396631,2.01686 l -0.632709,0.63272 H 76.781488 64.828232 Z m -18.759388,-9.05134 c -1.253411,-0.54565 -1.495043,-1.68129 -0.599857,-2.81932 0.512593,-0.65167 0.63725,-0.6792 3.074573,-0.6792 2.437322,0 2.561979,0.0276 3.074572,0.6792 0.293841,0.37356 0.534259,0.83209 0.534259,1.01896 0,0.76233 -0.63261,1.64327 -1.36286,1.89783 -1.078491,0.37597 -3.760332,0.32059 -4.720687,-0.0975 z m 11.541727,-0.22852 c -0.691769,-0.73636 -0.718312,-1.7291 -0.06768,-2.53257 0.489804,-0.60488 0.525698,-0.60855 5.951572,-0.60855 5.425874,0 5.46177,0.004 5.951566,0.60855 0.667264,0.82404 0.624398,1.88456 -0.103825,2.5687 -0.572519,0.53784 -0.810085,0.56047 -5.883865,0.56047 -5.193411,0 -5.297207,-0.0106 -5.847741,-0.5966 z m 16.569754,-0.0361 c -0.347996,-0.34799 -0.632712,-0.80653 -0.632712,-1.01896 0,-0.72431 0.571215,-1.64199 1.200526,-1.92873 0.423704,-0.19305 3.690607,-0.2862 10.037562,-0.2862 7.75403,0 9.537705,0.0663 10.138685,0.37712 1.230357,0.63625 1.409499,1.86409 0.416819,2.85677 l -0.632722,0.63271 h -9.947719 -9.94772 z m 24.935487,0.10712 c -0.817907,-0.76199 -0.762381,-2.11656 0.115049,-2.80675 0.373549,-0.29384 0.879906,-0.53426 1.125217,-0.53426 0.873833,0 1.804413,1.0067 1.804413,1.95201 0,1.69518 -1.823235,2.52696 -3.044679,1.389 z m -53.046968,-9.12234 c -1.253411,-0.54565 -1.495043,-1.68129 -0.599857,-2.81932 0.512593,-0.65166 0.63725,-0.6792 3.074573,-0.6792 2.437322,0 2.561979,0.0276 3.074572,0.6792 0.293841,0.37356 0.534259,0.83209 0.534259,1.01896 0,0.76233 -0.63261,1.64327 -1.36286,1.89784 -1.078491,0.37597 -3.760332,0.32058 -4.720687,-0.0975 z m 11.541727,-0.4863 c -0.986906,-1.05051 -0.629888,-2.5001 0.73275,-2.97511 1.010328,-0.35221 1.917415,0.0327 2.309818,0.98003 0.786686,1.89922 -1.638599,3.48954 -3.042568,1.99508 z m 7.217661,0 c -0.691769,-0.73636 -0.718312,-1.7291 -0.06768,-2.53256 l 0.492763,-0.60855 h 17.910985 c 17.251476,0 17.930971,0.0181 18.453601,0.49106 0.70804,0.64077 0.72187,2.0363 0.027,2.73112 -0.50563,0.50562 -0.85924,0.51554 -18.385893,0.51554 H 64.828222 Z m -18.733522,-8.72313 c -1.25678,-0.6874 -1.494504,-1.78527 -0.625723,-2.88975 0.50999,-0.64835 0.64516,-0.67919 2.976111,-0.67919 2.248894,0 2.49186,0.05 3.074582,0.63272 0.347995,0.34799 0.632711,0.80652 0.632711,1.01896 0,0.7243 -0.571214,1.64199 -1.200536,1.92872 -0.803483,0.3661 -4.181432,0.35813 -4.857145,-0.0115 z m 11.515861,-0.55671 c -0.925647,-0.98532 -0.707789,-2.27397 0.489056,-2.89288 0.604303,-0.3125 2.491822,-0.37713 11.014564,-0.37713 6.609951,0 10.566665,0.0981 11.072728,0.27451 1.448618,0.50499 1.67073,2.61175 0.349867,3.31865 -0.337098,0.18041 -4.228809,0.27345 -11.438332,0.27345 H 57.61056 Z m 28.242165,0.27438 c -1.139349,-0.86519 -0.965094,-2.55757 0.33087,-3.21329 0.785471,-0.39743 4.77272,-0.43593 5.860904,-0.0566 1.448623,0.50499 1.670727,2.61175 0.349867,3.31865 -0.735823,0.3938 -6.010617,0.35448 -6.541641,-0.0488 z m 11.428762,-0.35698 c -0.612497,-0.77867 -0.650978,-1.10256 -0.238501,-2.00784 0.559888,-1.22882 3.475088,-1.55493 4.621954,-0.51703 0.66156,0.59871 0.651,2.01751 -0.02,2.68852 -0.4086,0.4086 -0.85925,0.51555 -2.172361,0.51555 -1.482868,0 -1.712918,-0.0713 -2.191078,-0.6792 z M 45.486624,97.101975 c -1.208884,-0.487072 -1.453028,-2.000957 -0.479666,-2.974316 0.578977,-0.578978 0.831761,-0.632717 2.976111,-0.632717 2.144358,0 2.397143,0.05374 2.97612,0.632717 0.347995,0.347995 0.632711,0.806529 0.632711,1.018966 0,0.724299 -0.571214,1.641985 -1.200536,1.928722 -0.737766,0.336151 -4.091328,0.354357 -4.90474,0.02663 z m 28.356611,-0.04685 c -1.239563,-0.599282 -1.309362,-2.645971 -0.11208,-3.286737 0.700868,-0.375091 17.401863,-0.375091 18.102731,0 1.236384,0.661692 1.120158,2.706037 -0.187728,3.301948 -0.849407,0.387016 -16.999495,0.373218 -17.802923,-0.01521 z M 57.05008,96.507173 c -0.996196,-1.060405 -0.628885,-2.500455 0.761413,-2.985114 1.076044,-0.375108 9.16886,-0.375108 10.244905,0 1.408181,0.490895 1.778169,2.032106 0.725289,3.021238 -0.572519,0.53785 -0.810088,0.56048 -5.883865,0.56048 -5.193411,0 -5.297208,-0.01058 -5.847742,-0.596604 z m 38.897611,-0.0826 c -0.612505,-0.778668 -0.650978,-1.102561 -0.238509,-2.007841 0.383744,-0.842213 1.703483,-1.270002 3.466857,-1.123772 1.696721,0.140705 2.423961,0.715983 2.423961,1.917462 0,1.467646 -0.69129,1.89335 -3.074574,1.89335 -1.900579,0 -2.080842,-0.04749 -2.577735,-0.679199 z M 43.492999,74.390088 c -0.558171,-0.439055 -0.677777,-0.722447 -0.614754,-1.456592 0.204614,-2.3837 3.565729,-2.362546 3.554239,0.02236 -0.0046,0.963649 -0.18336,1.281676 -0.94576,1.682972 -0.8012,0.421717 -1.205495,0.371274 -1.993725,-0.248748 z m 6.458138,0.01085 c -0.939302,-0.738851 -0.939302,-2.059241 0,-2.798093 1.136308,-0.893818 2.383626,-0.558665 2.886592,0.775621 0.430152,1.141119 -0.47614,2.530697 -1.662171,2.548533 -0.299869,0.0045 -0.850861,-0.23222 -1.224421,-0.526061 z m 6.444337,0 c -0.939292,-0.738851 -0.939292,-2.059241 0,-2.798093 1.118635,-0.879911 2.198175,-0.668417 2.830595,0.554548 0.326985,0.632328 0.341873,0.902682 0.08403,1.525257 -0.548489,1.324158 -1.763638,1.623626 -2.914594,0.718288 z m 7.990989,0 c -0.939295,-0.738851 -0.939295,-2.059241 0,-2.798093 0.671007,-0.527815 0.877482,-0.534254 17.129823,-0.534254 11.80265,0 16.633572,0.08335 17.098122,0.295021 1.297543,0.5912 1.29514,2.686462 -0.0037,3.27828 -0.459663,0.209436 -5.347753,0.293306 -17.094359,0.293306 -16.252338,0 -16.458816,-0.0064 -17.129823,-0.534257 z m 40.108067,0.361731 c -0.1802,-0.0725 -0.50834,-0.481251 -0.72918,-0.908328 -0.33095,-0.639985 -0.34645,-0.90954 -0.0881,-1.533205 0.45491,-1.098251 0.93886,-1.252545 3.92874,-1.252545 2.32987,0 2.77947,0.07132 3.368,0.534257 0.49262,0.38749 0.6792,0.771826 0.6792,1.399045 0,0.627221 -0.18658,1.011558 -0.6792,1.399048 -0.5948,0.467873 -1.01919,0.531728 -3.4155,0.513905 -1.50497,-0.01119 -2.88374,-0.07967 -3.06395,-0.152175 z"
       id="path21"
       inkscape:connector-curvature="0" />
  </g>
</svg>
