<?xml version="1.0" encoding="UTF-8" standalone="no"?>
<!-- Created with Inkscape (http://www.inkscape.org/) -->

<svg
   xmlns:dc="http://purl.org/dc/elements/1.1/"
   xmlns:cc="http://creativecommons.org/ns#"
   xmlns:rdf="http://www.w3.org/1999/02/22-rdf-syntax-ns#"
   xmlns:svg="http://www.w3.org/2000/svg"
   xmlns="http://www.w3.org/2000/svg"
   xmlns:sodipodi="http://sodipodi.sourceforge.net/DTD/sodipodi-0.dtd"
   xmlns:inkscape="http://www.inkscape.org/namespaces/inkscape"
   width="149.57777mm"
   height="131.96919mm"
   viewBox="0 0 149.57777 131.96919"
   version="1.1"
   id="svg32"
   inkscape:version="0.92.3 (2405546, 2018-03-11)"
   sodipodi:docname="android.svg">
  <defs
     id="defs26" />
  <sodipodi:namedview
     id="base"
     pagecolor="#ffffff"
     bordercolor="#666666"
     borderopacity="1.0"
     inkscape:pageopacity="0.0"
     inkscape:pageshadow="2"
     inkscape:zoom="0.24748737"
     inkscape:cx="-751.89916"
     inkscape:cy="267.74754"
     inkscape:document-units="mm"
     inkscape:current-layer="layer1"
     showgrid="false"
     inkscape:window-width="1366"
     inkscape:window-height="743"
     inkscape:window-x="0"
     inkscape:window-y="25"
     inkscape:window-maximized="1"
     fit-margin-top="0"
     fit-margin-left="0"
     fit-margin-right="0"
     fit-margin-bottom="0" />
  <metadata
     id="metadata29">
    <rdf:RDF>
      <cc:Work
         rdf:about="">
        <dc:format>image/svg+xml</dc:format>
        <dc:type
           rdf:resource="http://purl.org/dc/dcmitype/StillImage" />
        <dc:title></dc:title>
      </cc:Work>
    </rdf:RDF>
  </metadata>
  <g
     inkscape:label="Layer 1"
     inkscape:groupmode="layer"
     id="layer1"
     transform="translate(-23.484924,-70.753494)">
    <path
       style="fill:#000000;stroke-width:0.58715552"
       d="m 83.639577,202.20972 c -0.93028,-0.27853 -2.3515,-1.11454 -3.15824,-1.85778 -2.57679,-2.37394 -3.07695,-4.49942 -3.07695,-13.0756 v -7.94547 h -2.60397 c -3.27075,0 -5.44811,-0.8122 -7.57689,-2.82634 -3.69534,-3.49635 -3.60059,-2.74982 -3.79352,-29.89119 -0.12095,-17.02474 0.0233,-25.16393 0.46103,-25.98162 0.6288,-1.17496 1.0834,-1.19071 34.35738,-1.19071 33.273953,0 33.728553,0.0158 34.357353,1.19071 0.43762,0.81769 0.58204,8.95688 0.46103,25.98162 -0.19284,27.14137 -0.0983,26.39484 -3.79351,29.89119 -2.12879,2.01414 -4.30615,2.82634 -7.5769,2.82634 h -2.60397 v 7.94547 c 0,8.8819 -0.51181,10.86193 -3.44588,13.33078 -3.77568,3.17701 -10.33701,2.41532 -13.14883,-1.52644 -1.17996,-1.65414 -1.34338,-2.73692 -1.6071,-10.6488 l -0.29358,-8.80744 h -2.348613 -2.34864 l -0.29357,8.80733 c -0.33501,10.05034 -0.74926,11.1577 -4.93126,13.18216 -2.6364,1.27627 -4.29388,1.41663 -7.03537,0.59579 z m 6.17681,-5.21097 c 1.33716,-1.08149 1.39653,-1.48092 1.67974,-11.30275 l 0.29357,-10.18164 h 6.45872 6.458693 l 0.29358,10.18164 c 0.28321,9.82183 0.34257,10.22126 1.67973,11.30275 1.85465,1.50002 4.66678,1.43121 6.35582,-0.15557 1.31153,-1.2321 1.35895,-1.60703 1.35895,-10.74493 0,-6.58135 0.21482,-9.68313 0.70459,-10.17288 0.38873,-0.38875 2.25714,-0.70458 4.16813,-0.70458 4.1165,0 6.84588,-1.15464 8.21728,-3.47622 0.89821,-1.52054 1.00173,-4.0682 1.00173,-24.65106 V 124.13825 H 98.248417 68.009887 v 22.95526 c 0,20.58286 0.10341,23.13052 1.00174,24.65106 1.3714,2.32158 4.10078,3.47622 8.21727,3.47622 1.911,0 3.77938,0.31583 4.16814,0.70458 0.48926,0.48924 0.70458,3.57324 0.70458,10.09059 0,8.82873 0.0759,9.46667 1.27667,10.74494 1.58424,1.68634 4.51337,1.79455 6.4381,0.23785 z m -39.14963,-29.44841 c -0.98094,-0.28527 -2.56627,-1.33532 -3.52293,-2.33345 l -1.73941,-1.81479 -0.16999,-19.08465 c -0.16377,-18.38805 -0.12605,-19.15592 1.03678,-21.0373 1.32775,-2.14836 4.30765,-3.83914 6.76627,-3.83914 2.4586,0 5.43852,1.69078 6.76627,3.83914 1.16276,1.88138 1.2006,2.64925 1.03678,21.0373 l -0.16999,19.08465 -1.72809,1.80297 c -0.95045,0.99163 -2.66787,2.06404 -3.81651,2.38313 -2.35447,0.65407 -2.07151,0.65647 -4.45909,-0.0379 z m 4.97026,-5.61974 c 1.1661,-1.48246 1.21657,-2.23653 1.20827,-18.05503 -0.009,-18.9399 -0.10852,-19.44374 -3.80786,-19.44374 -3.69924,0 -3.79793,0.50384 -3.80785,19.44374 -0.009,15.8185 0.0422,16.57257 1.20827,18.05503 0.69915,0.88882 1.80521,1.54707 2.59958,1.54707 0.79436,0 1.90044,-0.65825 2.59959,-1.54707 z m 85.451693,5.62572 c -0.98094,-0.28855 -2.56626,-1.3413 -3.52294,-2.33943 l -1.73941,-1.81479 -0.16999,-19.08465 c -0.16377,-18.38805 -0.12604,-19.15592 1.03678,-21.0373 2.21378,-3.58197 6.78833,-4.78182 10.54658,-2.76625 4.01377,2.15261 4.14656,2.89869 4.1441,23.2849 -0.002,17.01501 -0.0773,18.33421 -1.14628,20.08734 -1.99041,3.26437 -5.60245,4.71339 -9.1488,3.67018 z m 4.97025,-5.62572 c 1.16611,-1.48246 1.21657,-2.23653 1.20828,-18.05503 -0.01,-18.66519 -0.13242,-19.33016 -3.61878,-19.62265 -3.90304,-0.32744 -4.00559,0.16253 -4.00559,19.13713 0,16.39907 0.20789,18.4442 1.99615,19.63826 1.31881,0.8806 3.23891,0.40373 4.41994,-1.09771 z M 64.191957,116.12635 c -0.76,-0.76001 -0.88558,-1.60527 -0.58881,-3.9633 0.6521,-5.18152 2.00857,-9.78523 3.97485,-13.490332 2.26118,-4.260774 8.44316,-11.009233 11.98827,-13.086803 1.39446,-0.817203 2.53487,-1.658881 2.53424,-1.870397 -5.9e-4,-0.211509 -1.32171,-2.580296 -2.93578,-5.263956 -3.16119,-5.256041 -3.39198,-6.046812 -2.08209,-7.133921 1.58571,-1.316026 3.14645,0.0055 6.29001,5.325907 3.0406,5.146159 3.1844,5.290338 4.89412,4.906825 5.33553,-1.196838 6.76962,-1.397642 9.98165,-1.397642 3.212003,0 4.646103,0.200813 9.981633,1.397642 1.71102,0.383808 1.85254,0.241002 4.94109,-4.986167 3.29283,-5.572881 4.24609,-6.459881 5.8543,-5.447249 1.64747,1.037347 1.37374,2.234964 -1.6659,7.288938 -1.62916,2.708778 -2.96262,5.078716 -2.96324,5.266529 -5.8e-4,0.187809 1.28792,1.176749 2.86342,2.197631 4.47061,2.896857 9.73537,8.919592 12.01965,13.750121 3.049,6.447694 4.54566,14.985994 2.91306,16.618604 -0.72652,0.72651 -5.78059,0.85361 -33.944013,0.85361 -29.92951,0 -33.1827,-0.0923 -34.05646,-0.96604 z m 63.932883,-5.63946 C 126.01375,98.37886 117.33905,88.645283 105.9587,85.615053 c -3.87955,-1.033004 -11.587423,-1.028759 -15.343323,0.0084 -11.08229,3.060435 -19.14997,11.307929 -21.71857,22.202697 -0.47826,2.02852 -0.87345,3.88638 -0.87824,4.12858 -0.004,0.2422 13.59206,0.44036 30.21516,0.44036 h 30.223833 z m -47.543573,-8.95413 c -0.20261,-0.80733 -0.20261,-2.128434 0,-2.935773 0.32413,-1.291377 0.68346,-1.467888 2.98825,-1.467888 2.3048,0 2.66413,0.176513 2.98824,1.467888 0.20261,0.807339 0.20261,2.128443 0,2.935773 -0.32411,1.29138 -0.68344,1.46789 -2.98824,1.46789 -2.30479,0 -2.66412,-0.17651 -2.98825,-1.46789 z m 29.357783,0 c -0.20261,-0.80733 -0.20261,-2.128434 0,-2.935773 0.32318,-1.287614 0.68581,-1.467888 2.95278,-1.467888 2.38976,0 2.61328,0.131641 2.96835,1.748274 0.68468,3.117367 -0.0377,4.123277 -2.96127,4.123277 -2.27451,0 -2.6365,-0.17951 -2.95986,-1.46789 z"
       id="path118"
       inkscape:connector-curvature="0" />
  </g>
</svg>
