<?xml version="1.0" encoding="UTF-8" standalone="no"?>
<!-- Created with Inkscape (http://www.inkscape.org/) -->

<svg
   xmlns:dc="http://purl.org/dc/elements/1.1/"
   xmlns:cc="http://creativecommons.org/ns#"
   xmlns:rdf="http://www.w3.org/1999/02/22-rdf-syntax-ns#"
   xmlns:svg="http://www.w3.org/2000/svg"
   xmlns="http://www.w3.org/2000/svg"
   xmlns:sodipodi="http://sodipodi.sourceforge.net/DTD/sodipodi-0.dtd"
   xmlns:inkscape="http://www.inkscape.org/namespaces/inkscape"
   width="149.57777mm"
   height="131.96919mm"
   viewBox="0 0 149.57777 131.96919"
   version="1.1"
   id="svg32"
   inkscape:version="0.92.3 (2405546, 2018-03-11)"
   sodipodi:docname="desktop_programming.svg">
  <defs
     id="defs26" />
  <sodipodi:namedview
     id="base"
     pagecolor="#ffffff"
     bordercolor="#666666"
     borderopacity="1.0"
     inkscape:pageopacity="0.0"
     inkscape:pageshadow="2"
     inkscape:zoom="0.49497475"
     inkscape:cx="105.19585"
     inkscape:cy="230.8163"
     inkscape:document-units="mm"
     inkscape:current-layer="layer1"
     showgrid="false"
     inkscape:window-width="1366"
     inkscape:window-height="743"
     inkscape:window-x="0"
     inkscape:window-y="25"
     inkscape:window-maximized="1"
     fit-margin-top="0"
     fit-margin-left="0"
     fit-margin-right="0"
     fit-margin-bottom="0" />
  <metadata
     id="metadata29">
    <rdf:RDF>
      <cc:Work
         rdf:about="">
        <dc:format>image/svg+xml</dc:format>
        <dc:type
           rdf:resource="http://purl.org/dc/dcmitype/StillImage" />
        <dc:title></dc:title>
      </cc:Work>
    </rdf:RDF>
  </metadata>
  <g
     inkscape:label="Layer 1"
     inkscape:groupmode="layer"
     id="layer1"
     transform="translate(-23.484924,-70.753494)">
    <path
       style="stroke-width:0.35277775"
       d="M 156.48215,202.72269 H 40.065479 c -9.1419,0 -16.580555,-7.43727 -16.580555,-16.58055 V 87.334054 c 0,-9.14191 7.438655,-16.58056 16.580555,-16.58056 H 156.48215 c 9.1419,0 16.58055,7.43865 16.58055,16.58056 v 98.808086 c 0,9.14328 -7.43865,16.58055 -16.58055,16.58055 z M 40.065479,75.692384 c -6.4189,0 -11.64167,5.22276 -11.64167,11.64167 v 98.808086 c 0,6.4189 5.22277,11.64166 11.64167,11.64166 H 156.48215 c 6.4189,0 11.64166,-5.22276 11.64166,-11.64166 V 87.334054 c 0,-6.41891 -5.22276,-11.64167 -11.64166,-11.64167 z m 0,0"
       id="path8"
       inkscape:connector-curvature="0" />
    <path
       style="stroke-width:0.35277775"
       d="M 170.59326,110.2963 H 25.954369 c -1.364258,0 -2.469445,-1.10519 -2.469445,-2.46945 0,-1.36288 1.105187,-2.46944 2.469445,-2.46944 H 170.59326 c 1.36426,0 2.46944,1.10656 2.46944,2.46944 0,1.36426 -1.10518,2.46945 -2.46944,2.46945 z m 0,0"
       id="path10"
       inkscape:connector-curvature="0" />
    <path
       style="stroke-width:0.35277775"
       d="m 65.677699,98.479624 c -4.30775,0 -7.81486,-3.50711 -7.81486,-7.81486 0,-4.30912 3.50711,-7.81485 7.81486,-7.81485 4.30912,0 7.81485,3.50573 7.81485,7.81485 0,4.30775 -3.50573,7.81486 -7.81485,7.81486 z m 0,-10.69082 c -1.58474,0 -2.87597,1.28984 -2.87597,2.87596 0,1.58613 1.29123,2.87597 2.87597,2.87597 1.58612,0 2.87596,-1.28984 2.87596,-2.87597 0,-1.58612 -1.28984,-2.87596 -2.87596,-2.87596 z m 0,0"
       id="path12"
       inkscape:connector-curvature="0" />
    <path
       style="stroke-width:0.35277775"
       d="m 41.666759,98.403834 c -4.30912,0 -7.81485,-3.50573 -7.81485,-7.81486 0,-4.30912 3.50573,-7.81485 7.81485,-7.81485 4.30913,0 7.81486,3.50573 7.81486,7.81485 0,4.30913 -3.50573,7.81486 -7.81486,7.81486 z m 0,-10.69082 c -1.58474,0 -2.87596,1.29122 -2.87596,2.87596 0,1.58612 1.29122,2.87597 2.87596,2.87597 1.58612,0 2.87597,-1.28985 2.87597,-2.87597 0,-1.58474 -1.28985,-2.87596 -2.87597,-2.87596 z m 0,0"
       id="path14"
       inkscape:connector-curvature="0" />
    <path
       style="stroke-width:0.35277775"
       d="m 89.688629,98.554034 c -4.30774,0 -7.81347,-3.50573 -7.81347,-7.81485 0,-4.30775 3.50573,-7.81348 7.81347,-7.81348 4.30913,0 7.81486,3.50573 7.81486,7.81348 0,4.30912 -3.50573,7.81485 -7.81486,7.81485 z m 0,-10.69082 c -1.58474,0 -2.87459,1.28985 -2.87459,2.87597 0,1.58612 1.28985,2.87596 2.87459,2.87596 1.58613,0 2.87597,-1.28984 2.87597,-2.87596 0,-1.58612 -1.28984,-2.87597 -2.87597,-2.87597 z m 0,0"
       id="path16"
       inkscape:connector-curvature="0" />
    <path
       style="fill:#000000;stroke-width:0.25113463"
       d="m 94.378343,176.69626 c -0.828744,-0.11829 -2.464284,-0.51153 -3.634522,-0.87387 -18.904316,-5.85325 -24.833993,-29.46054 -10.899852,-43.39458 12.541139,-12.54106 33.717201,-9.17382 41.654671,6.62357 5.14527,10.24025 3.24828,22.17124 -4.80569,30.22517 -5.84215,5.8421 -14.10913,8.59092 -22.314607,7.41971 z m 9.625117,-4.48427 c 7.76962,-2.21955 13.43532,-7.90288 15.65811,-15.70681 0.82069,-2.88135 0.82612,-8.40712 0.011,-11.24791 -2.27158,-7.91717 -7.89484,-13.55544 -15.75112,-15.7931 -1.6743,-0.47688 -2.6159,-0.57223 -5.650554,-0.57223 -3.034646,0 -3.976256,0.0953 -5.65055,0.57223 -7.856271,2.23766 -13.479556,7.87593 -15.751128,15.7931 -0.809578,2.82165 -0.809578,8.37315 0,11.19479 2.457657,8.56574 9.148601,14.71232 17.675806,16.23775 2.174546,0.38899 7.336956,0.1282 9.458386,-0.47782 z m -15.841228,-7.65214 c -2.638627,-0.94162 -3.738216,-2.76007 -3.959382,-6.54787 -0.08068,-1.38124 -0.2796,-2.75342 -0.442116,-3.0493 -0.476827,-0.86818 -1.760785,-1.81514 -2.699972,-1.99134 l -0.871577,-0.1635 v -1.95318 -1.95317 l 0.871577,-0.16351 c 1.093903,-0.20521 2.356702,-1.25055 2.804038,-2.32115 0.188403,-0.45091 0.342559,-1.65091 0.342559,-2.66668 0,-2.34214 0.562118,-4.00522 1.757945,-5.20104 1.298051,-1.29805 2.820846,-1.75794 5.820855,-1.75794 h 2.466618 v 2.00907 2.00907 h -2.397204 c -2.210333,0 -2.445256,0.048 -3.013629,0.61642 -0.57797,0.57797 -0.616573,0.78555 -0.61888,3.32752 -0.0019,2.3097 -0.08913,2.89702 -0.587871,3.96677 -0.321979,0.69063 -0.774668,1.41223 -1.005982,1.60357 -0.38821,0.32114 -0.368638,0.41596 0.25456,1.23302 1.054237,1.38217 1.318752,2.45545 1.330731,5.39946 0.01035,2.53623 0.05078,2.75087 0.627442,3.32752 0.568373,0.56838 0.803296,0.61643 3.013629,0.61643 h 2.397204 v 2.00907 2.00907 l -2.57414,-0.011 c -1.485109,-0.007 -2.972785,-0.15328 -3.516405,-0.34728 z m 14.126868,-1.62431 v -2.03552 h 2.39721 c 2.21033,0 2.44526,-0.048 3.01363,-0.61643 0.57666,-0.57665 0.61713,-0.79129 0.62744,-3.32752 0.012,-2.94401 0.2765,-4.01729 1.33073,-5.39946 0.62321,-0.81706 0.64278,-0.91188 0.25455,-1.23302 -0.2313,-0.19134 -0.68399,-0.91294 -1.00597,-1.60357 -0.49875,-1.06975 -0.58579,-1.65707 -0.58788,-3.96677 -0.002,-2.54197 -0.0409,-2.74955 -0.61887,-3.32752 -0.56837,-0.56836 -0.8033,-0.61642 -3.01363,-0.61642 h -2.39721 v -2.00907 -2.00907 h 2.47979 c 3.69383,0 5.45831,0.76936 6.72618,2.93281 0.56763,0.96857 0.69393,1.54782 0.83149,3.81338 0.0892,1.46924 0.29446,2.91341 0.45612,3.2093 0.47365,0.86686 1.75842,1.81498 2.69844,1.99132 l 0.87158,0.16351 v 1.95317 1.95318 l -0.87158,0.1635 c -0.94002,0.17635 -2.22479,1.12447 -2.69844,1.99134 -0.16166,0.29588 -0.36755,1.75067 -0.45752,3.23288 -0.14487,2.3866 -0.24782,2.83117 -0.89994,3.88594 -0.44787,0.7244 -1.21791,1.48877 -1.96554,1.95105 -1.1552,0.71429 -1.40796,0.76542 -4.19987,0.84927 l -2.97071,0.0892 z M 76.17102,124.73675 c 68.97855,53.00121 34.48928,26.5006 0,0 z"
       id="path100"
       inkscape:connector-curvature="0"
       sodipodi:nodetypes="cssssccsccssssccccccccccccssscccsccccccssccccccccsccscccsscccsccccccccccccccccc" />
  </g>
</svg>
