<?xml version="1.0" encoding="UTF-8" standalone="no"?>
<svg
   xmlns:dc="http://purl.org/dc/elements/1.1/"
   xmlns:cc="http://creativecommons.org/ns#"
   xmlns:rdf="http://www.w3.org/1999/02/22-rdf-syntax-ns#"
   xmlns:svg="http://www.w3.org/2000/svg"
   xmlns="http://www.w3.org/2000/svg"
   xmlns:sodipodi="http://sodipodi.sourceforge.net/DTD/sodipodi-0.dtd"
   xmlns:inkscape="http://www.inkscape.org/namespaces/inkscape"
   height="374.08594pt"
   viewBox="0 -25 424 374.08594"
   width="424pt"
   version="1.1"
   id="svg18"
   sodipodi:docname="web_programming.svg"
   inkscape:version="0.92.3 (2405546, 2018-03-11)">
  <metadata
     id="metadata24">
    <rdf:RDF>
      <cc:Work
         rdf:about="">
        <dc:format>image/svg+xml</dc:format>
        <dc:type
           rdf:resource="http://purl.org/dc/dcmitype/StillImage" />
        <dc:title></dc:title>
      </cc:Work>
    </rdf:RDF>
  </metadata>
  <defs
     id="defs22" />
  <sodipodi:namedview
     pagecolor="#ffffff"
     bordercolor="#666666"
     borderopacity="1"
     objecttolerance="10"
     gridtolerance="10"
     guidetolerance="10"
     inkscape:pageopacity="0"
     inkscape:pageshadow="2"
     inkscape:window-width="1366"
     inkscape:window-height="743"
     id="namedview20"
     showgrid="false"
     fit-margin-top="0"
     fit-margin-left="0"
     fit-margin-right="0"
     fit-margin-bottom="0"
     inkscape:zoom="0.29518373"
     inkscape:cx="729.91195"
     inkscape:cy="555.09786"
     inkscape:window-x="0"
     inkscape:window-y="25"
     inkscape:window-maximized="1"
     inkscape:current-layer="svg18" />
  <g
     id="g105">
    <path
       inkscape:connector-curvature="0"
       id="path2"
       d="m 167.28906,247.13281 c -1.60156,0 -3.21484,-0.55078 -4.53125,-1.67187 L 117.46094,206.89062 C 115.89844,205.55859 115,203.61328 115,201.55859 c 0,-2.05078 0.90234,-3.99609 2.46094,-5.32812 l 45.29687,-38.57031 c 2.94141,-2.50782 7.35938,-2.15235 9.86719,0.78906 2.50391,2.94531 2.15234,7.36328 -0.79297,9.86719 l -39.03516,33.24218 39.03516,33.24219 c 2.94531,2.50781 3.29688,6.92578 0.79297,9.86719 -1.38672,1.6289 -3.35547,2.46484 -5.33594,2.46484 z m 0,0" />
    <path
       inkscape:connector-curvature="0"
       id="path4"
       d="m 256.71094,247.13281 c -1.98047,0 -3.94922,-0.83594 -5.33203,-2.46484 -2.50782,-2.94141 -2.15235,-7.35938 0.78906,-9.86719 l 39.03515,-33.24219 -39.03515,-33.24218 c -2.94141,-2.50391 -3.29688,-6.92188 -0.78906,-9.86719 2.5039,-2.94141 6.92578,-3.29688 9.86328,-0.78906 l 45.29687,38.57031 c 1.5625,1.33203 2.46094,3.27734 2.46094,5.32812 0,2.05469 -0.89844,4 -2.46094,5.33204 l -45.29687,38.57031 c -1.31641,1.12109 -2.92969,1.67187 -4.53125,1.67187 z m 0,0" />
    <path
       inkscape:connector-curvature="0"
       id="path6"
       d="m 195.96484,276.0625 c -0.48047,0 -0.96484,-0.0508 -1.45312,-0.15234 -3.78125,-0.79688 -6.20313,-4.51172 -5.40625,-8.29297 l 28.23047,-134.03516 c 0.79687,-3.78125 4.50781,-6.20312 8.29297,-5.40625 3.78125,0.79688 6.20312,4.50781 5.40625,8.29297 l -28.23047,134.03516 c -0.69532,3.29687 -3.60157,5.55859 -6.83985,5.55859 z m 0,0" />
  </g>
  <path
     d="M 377,349.08594 H 47 c -25.914062,0 -47,-21.08203 -47,-47 V 22 C 0,-3.914062 21.085938,-25 47,-25 h 330 c 25.91406,0 47,21.085938 47,47 v 280.08594 c 0,25.91797 -21.08594,47 -47,47 z M 47,-11 C 28.804688,-11 14,3.804688 14,22 v 280.08594 c 0,18.19531 14.804688,33 33,33 h 330 c 18.19531,0 33,-14.80469 33,-33 V 22 c 0,-18.195312 -14.80469,-33 -33,-33 z m 0,0"
     id="path8"
     inkscape:connector-curvature="0" />
  <path
     d="M 417,87.08984 H 7 c -3.867188,0 -7,-3.13281 -7,-7 0,-3.86328 3.132812,-6.999996 7,-6.999996 h 410 c 3.86719,0 7,3.136716 7,6.999996 0,3.86719 -3.13281,7 -7,7 z m 0,0"
     id="path10"
     inkscape:connector-curvature="0" />
  <path
     d="m 119.60156,53.59375 c -12.21093,0 -22.152341,-9.941406 -22.152341,-22.152344 0,-12.214844 9.941411,-22.152344 22.152341,-22.152344 12.21485,0 22.15235,9.9375 22.15235,22.152344 0,12.210938 -9.9375,22.152344 -22.15235,22.152344 z m 0,-30.304688 c -4.49218,0 -8.15234,3.65625 -8.15234,8.152344 0,4.496094 3.66016,8.152344 8.15234,8.152344 4.4961,0 8.15235,-3.65625 8.15235,-8.152344 0,-4.496094 -3.65625,-8.152344 -8.15235,-8.152344 z m 0,0"
     id="path12"
     inkscape:connector-curvature="0" />
  <path
     d="m 51.539062,53.378906 c -12.214843,0 -22.152343,-9.9375 -22.152343,-22.152344 0,-12.214843 9.9375,-22.152343 22.152343,-22.152343 12.214844,0 22.152344,9.9375 22.152344,22.152343 0,12.214844 -9.9375,22.152344 -22.152344,22.152344 z m 0,-30.304687 c -4.492187,0 -8.152343,3.660156 -8.152343,8.152343 0,4.496094 3.660156,8.152344 8.152343,8.152344 4.496094,0 8.152344,-3.65625 8.152344,-8.152344 0,-4.492187 -3.65625,-8.152343 -8.152344,-8.152343 z m 0,0"
     id="path14"
     inkscape:connector-curvature="0" />
  <path
     d="m 187.66406,53.804688 c -12.21094,0 -22.14844,-9.9375 -22.14844,-22.152344 0,-12.210938 9.9375,-22.148438 22.14844,-22.148438 12.21485,0 22.15235,9.9375 22.15235,22.148438 0,12.214844 -9.9375,22.152344 -22.15235,22.152344 z m 0,-30.304688 c -4.49219,0 -8.14844,3.65625 -8.14844,8.152344 0,4.496094 3.65625,8.152344 8.14844,8.152344 4.4961,0 8.15235,-3.65625 8.15235,-8.152344 0,-4.496094 -3.65625,-8.152344 -8.15235,-8.152344 z m 0,0"
     id="path16"
     inkscape:connector-curvature="0" />
</svg>
